G04 #@! TF.FileFunction,Legend,Top*
%FSLAX46Y46*%
G04 Gerber Fmt 4.6, Leading zero omitted, Abs format (unit mm)*
G04 Created by KiCad (PCBNEW 4.0.1-3.201512221402+6198~38~ubuntu14.04.1-stable) date Sun Jan  3 21:03:05 2016*
%MOMM*%
G01*
G04 APERTURE LIST*
%ADD10C,0.150000*%
%ADD11C,0.100000*%
%ADD12C,0.127000*%
%ADD13C,0.002540*%
G04 APERTURE END LIST*
D10*
D11*
X102559525Y-47926190D02*
X102654763Y-47926190D01*
X102702382Y-47950000D01*
X102750001Y-47997619D01*
X102773810Y-48092857D01*
X102773810Y-48259524D01*
X102750001Y-48354762D01*
X102702382Y-48402381D01*
X102654763Y-48426190D01*
X102559525Y-48426190D01*
X102511906Y-48402381D01*
X102464287Y-48354762D01*
X102440477Y-48259524D01*
X102440477Y-48092857D01*
X102464287Y-47997619D01*
X102511906Y-47950000D01*
X102559525Y-47926190D01*
X102988097Y-48092857D02*
X102988097Y-48592857D01*
X102988097Y-48116667D02*
X103035716Y-48092857D01*
X103130954Y-48092857D01*
X103178573Y-48116667D01*
X103202382Y-48140476D01*
X103226192Y-48188095D01*
X103226192Y-48330952D01*
X103202382Y-48378571D01*
X103178573Y-48402381D01*
X103130954Y-48426190D01*
X103035716Y-48426190D01*
X102988097Y-48402381D01*
X103630954Y-48402381D02*
X103583335Y-48426190D01*
X103488097Y-48426190D01*
X103440478Y-48402381D01*
X103416668Y-48354762D01*
X103416668Y-48164286D01*
X103440478Y-48116667D01*
X103488097Y-48092857D01*
X103583335Y-48092857D01*
X103630954Y-48116667D01*
X103654763Y-48164286D01*
X103654763Y-48211905D01*
X103416668Y-48259524D01*
X103869049Y-48092857D02*
X103869049Y-48426190D01*
X103869049Y-48140476D02*
X103892858Y-48116667D01*
X103940477Y-48092857D01*
X104011906Y-48092857D01*
X104059525Y-48116667D01*
X104083334Y-48164286D01*
X104083334Y-48426190D01*
X104321430Y-48164286D02*
X104488096Y-48164286D01*
X104559525Y-48426190D02*
X104321430Y-48426190D01*
X104321430Y-47926190D01*
X104559525Y-47926190D01*
X104845239Y-48426190D02*
X104797620Y-48402381D01*
X104773811Y-48354762D01*
X104773811Y-47926190D01*
X105226192Y-48402381D02*
X105178573Y-48426190D01*
X105083335Y-48426190D01*
X105035716Y-48402381D01*
X105011906Y-48354762D01*
X105011906Y-48164286D01*
X105035716Y-48116667D01*
X105083335Y-48092857D01*
X105178573Y-48092857D01*
X105226192Y-48116667D01*
X105250001Y-48164286D01*
X105250001Y-48211905D01*
X105011906Y-48259524D01*
X105678572Y-48402381D02*
X105630953Y-48426190D01*
X105535715Y-48426190D01*
X105488096Y-48402381D01*
X105464287Y-48378571D01*
X105440477Y-48330952D01*
X105440477Y-48188095D01*
X105464287Y-48140476D01*
X105488096Y-48116667D01*
X105535715Y-48092857D01*
X105630953Y-48092857D01*
X105678572Y-48116667D01*
X105821429Y-48092857D02*
X106011905Y-48092857D01*
X105892858Y-47926190D02*
X105892858Y-48354762D01*
X105916667Y-48402381D01*
X105964286Y-48426190D01*
X106011905Y-48426190D01*
X106178572Y-48426190D02*
X106178572Y-48092857D01*
X106178572Y-48188095D02*
X106202381Y-48140476D01*
X106226191Y-48116667D01*
X106273810Y-48092857D01*
X106321429Y-48092857D01*
X106559524Y-48426190D02*
X106511905Y-48402381D01*
X106488096Y-48378571D01*
X106464286Y-48330952D01*
X106464286Y-48188095D01*
X106488096Y-48140476D01*
X106511905Y-48116667D01*
X106559524Y-48092857D01*
X106630953Y-48092857D01*
X106678572Y-48116667D01*
X106702381Y-48140476D01*
X106726191Y-48188095D01*
X106726191Y-48330952D01*
X106702381Y-48378571D01*
X106678572Y-48402381D01*
X106630953Y-48426190D01*
X106559524Y-48426190D01*
X106940477Y-48092857D02*
X106940477Y-48426190D01*
X106940477Y-48140476D02*
X106964286Y-48116667D01*
X107011905Y-48092857D01*
X107083334Y-48092857D01*
X107130953Y-48116667D01*
X107154762Y-48164286D01*
X107154762Y-48426190D01*
X107392858Y-48426190D02*
X107392858Y-48092857D01*
X107392858Y-47926190D02*
X107369048Y-47950000D01*
X107392858Y-47973810D01*
X107416667Y-47950000D01*
X107392858Y-47926190D01*
X107392858Y-47973810D01*
X107845238Y-48402381D02*
X107797619Y-48426190D01*
X107702381Y-48426190D01*
X107654762Y-48402381D01*
X107630953Y-48378571D01*
X107607143Y-48330952D01*
X107607143Y-48188095D01*
X107630953Y-48140476D01*
X107654762Y-48116667D01*
X107702381Y-48092857D01*
X107797619Y-48092857D01*
X107845238Y-48116667D01*
X108035714Y-48402381D02*
X108083333Y-48426190D01*
X108178571Y-48426190D01*
X108226190Y-48402381D01*
X108250000Y-48354762D01*
X108250000Y-48330952D01*
X108226190Y-48283333D01*
X108178571Y-48259524D01*
X108107143Y-48259524D01*
X108059524Y-48235714D01*
X108035714Y-48188095D01*
X108035714Y-48164286D01*
X108059524Y-48116667D01*
X108107143Y-48092857D01*
X108178571Y-48092857D01*
X108226190Y-48116667D01*
X108702381Y-48426190D02*
X108464286Y-48426190D01*
X108464286Y-47926190D01*
X109083333Y-48426190D02*
X109083333Y-48164286D01*
X109059524Y-48116667D01*
X109011905Y-48092857D01*
X108916667Y-48092857D01*
X108869048Y-48116667D01*
X109083333Y-48402381D02*
X109035714Y-48426190D01*
X108916667Y-48426190D01*
X108869048Y-48402381D01*
X108845238Y-48354762D01*
X108845238Y-48307143D01*
X108869048Y-48259524D01*
X108916667Y-48235714D01*
X109035714Y-48235714D01*
X109083333Y-48211905D01*
X109321429Y-48426190D02*
X109321429Y-47926190D01*
X109321429Y-48116667D02*
X109369048Y-48092857D01*
X109464286Y-48092857D01*
X109511905Y-48116667D01*
X109535714Y-48140476D01*
X109559524Y-48188095D01*
X109559524Y-48330952D01*
X109535714Y-48378571D01*
X109511905Y-48402381D01*
X109464286Y-48426190D01*
X109369048Y-48426190D01*
X109321429Y-48402381D01*
X103761906Y-49083333D02*
X104000001Y-49083333D01*
X103714287Y-49226190D02*
X103880954Y-48726190D01*
X104047620Y-49226190D01*
X104428572Y-49202381D02*
X104380953Y-49226190D01*
X104285715Y-49226190D01*
X104238096Y-49202381D01*
X104214287Y-49178571D01*
X104190477Y-49130952D01*
X104190477Y-48988095D01*
X104214287Y-48940476D01*
X104238096Y-48916667D01*
X104285715Y-48892857D01*
X104380953Y-48892857D01*
X104428572Y-48916667D01*
X104833334Y-49202381D02*
X104785715Y-49226190D01*
X104690477Y-49226190D01*
X104642858Y-49202381D01*
X104619048Y-49154762D01*
X104619048Y-48964286D01*
X104642858Y-48916667D01*
X104690477Y-48892857D01*
X104785715Y-48892857D01*
X104833334Y-48916667D01*
X104857143Y-48964286D01*
X104857143Y-49011905D01*
X104619048Y-49059524D01*
X105452381Y-49226190D02*
X105452381Y-48726190D01*
X105619047Y-49083333D01*
X105785714Y-48726190D01*
X105785714Y-49226190D01*
X106214286Y-49202381D02*
X106166667Y-49226190D01*
X106071429Y-49226190D01*
X106023810Y-49202381D01*
X106000000Y-49154762D01*
X106000000Y-48964286D01*
X106023810Y-48916667D01*
X106071429Y-48892857D01*
X106166667Y-48892857D01*
X106214286Y-48916667D01*
X106238095Y-48964286D01*
X106238095Y-49011905D01*
X106000000Y-49059524D01*
X106666666Y-49226190D02*
X106666666Y-48726190D01*
X106666666Y-49202381D02*
X106619047Y-49226190D01*
X106523809Y-49226190D01*
X106476190Y-49202381D01*
X106452381Y-49178571D01*
X106428571Y-49130952D01*
X106428571Y-48988095D01*
X106452381Y-48940476D01*
X106476190Y-48916667D01*
X106523809Y-48892857D01*
X106619047Y-48892857D01*
X106666666Y-48916667D01*
X106976190Y-49226190D02*
X106928571Y-49202381D01*
X106904762Y-49154762D01*
X106904762Y-48726190D01*
X107238095Y-49226190D02*
X107190476Y-49202381D01*
X107166667Y-49178571D01*
X107142857Y-49130952D01*
X107142857Y-48988095D01*
X107166667Y-48940476D01*
X107190476Y-48916667D01*
X107238095Y-48892857D01*
X107309524Y-48892857D01*
X107357143Y-48916667D01*
X107380952Y-48940476D01*
X107404762Y-48988095D01*
X107404762Y-49130952D01*
X107380952Y-49178571D01*
X107357143Y-49202381D01*
X107309524Y-49226190D01*
X107238095Y-49226190D01*
X107833333Y-49202381D02*
X107785714Y-49226190D01*
X107690476Y-49226190D01*
X107642857Y-49202381D01*
X107619048Y-49178571D01*
X107595238Y-49130952D01*
X107595238Y-48988095D01*
X107619048Y-48940476D01*
X107642857Y-48916667D01*
X107690476Y-48892857D01*
X107785714Y-48892857D01*
X107833333Y-48916667D01*
X108047619Y-49226190D02*
X108047619Y-48726190D01*
X108095238Y-49035714D02*
X108238095Y-49226190D01*
X108238095Y-48892857D02*
X108047619Y-49083333D01*
X103797620Y-49764286D02*
X103964286Y-49764286D01*
X104035715Y-50026190D02*
X103797620Y-50026190D01*
X103797620Y-49526190D01*
X104035715Y-49526190D01*
X104250001Y-50026190D02*
X104250001Y-49692857D01*
X104250001Y-49788095D02*
X104273810Y-49740476D01*
X104297620Y-49716667D01*
X104345239Y-49692857D01*
X104392858Y-49692857D01*
X104559525Y-50026190D02*
X104559525Y-49692857D01*
X104559525Y-49526190D02*
X104535715Y-49550000D01*
X104559525Y-49573810D01*
X104583334Y-49550000D01*
X104559525Y-49526190D01*
X104559525Y-49573810D01*
X105011905Y-50002381D02*
X104964286Y-50026190D01*
X104869048Y-50026190D01*
X104821429Y-50002381D01*
X104797620Y-49978571D01*
X104773810Y-49930952D01*
X104773810Y-49788095D01*
X104797620Y-49740476D01*
X104821429Y-49716667D01*
X104869048Y-49692857D01*
X104964286Y-49692857D01*
X105011905Y-49716667D01*
X105607143Y-50026190D02*
X105607143Y-49526190D01*
X105607143Y-49764286D02*
X105892857Y-49764286D01*
X105892857Y-50026190D02*
X105892857Y-49526190D01*
X106321429Y-50002381D02*
X106273810Y-50026190D01*
X106178572Y-50026190D01*
X106130953Y-50002381D01*
X106107143Y-49954762D01*
X106107143Y-49764286D01*
X106130953Y-49716667D01*
X106178572Y-49692857D01*
X106273810Y-49692857D01*
X106321429Y-49716667D01*
X106345238Y-49764286D01*
X106345238Y-49811905D01*
X106107143Y-49859524D01*
X106559524Y-50026190D02*
X106559524Y-49692857D01*
X106559524Y-49788095D02*
X106583333Y-49740476D01*
X106607143Y-49716667D01*
X106654762Y-49692857D01*
X106702381Y-49692857D01*
X106869048Y-50026190D02*
X106869048Y-49692857D01*
X106869048Y-49740476D02*
X106892857Y-49716667D01*
X106940476Y-49692857D01*
X107011905Y-49692857D01*
X107059524Y-49716667D01*
X107083333Y-49764286D01*
X107083333Y-50026190D01*
X107083333Y-49764286D02*
X107107143Y-49716667D01*
X107154762Y-49692857D01*
X107226190Y-49692857D01*
X107273810Y-49716667D01*
X107297619Y-49764286D01*
X107297619Y-50026190D01*
X107750000Y-50026190D02*
X107750000Y-49764286D01*
X107726191Y-49716667D01*
X107678572Y-49692857D01*
X107583334Y-49692857D01*
X107535715Y-49716667D01*
X107750000Y-50002381D02*
X107702381Y-50026190D01*
X107583334Y-50026190D01*
X107535715Y-50002381D01*
X107511905Y-49954762D01*
X107511905Y-49907143D01*
X107535715Y-49859524D01*
X107583334Y-49835714D01*
X107702381Y-49835714D01*
X107750000Y-49811905D01*
X107988096Y-49692857D02*
X107988096Y-50026190D01*
X107988096Y-49740476D02*
X108011905Y-49716667D01*
X108059524Y-49692857D01*
X108130953Y-49692857D01*
X108178572Y-49716667D01*
X108202381Y-49764286D01*
X108202381Y-50026190D01*
X103369049Y-50826190D02*
X103369049Y-50326190D01*
X103654763Y-50826190D02*
X103440477Y-50540476D01*
X103654763Y-50326190D02*
X103369049Y-50611905D01*
X104059525Y-50802381D02*
X104011906Y-50826190D01*
X103916668Y-50826190D01*
X103869049Y-50802381D01*
X103845239Y-50754762D01*
X103845239Y-50564286D01*
X103869049Y-50516667D01*
X103916668Y-50492857D01*
X104011906Y-50492857D01*
X104059525Y-50516667D01*
X104083334Y-50564286D01*
X104083334Y-50611905D01*
X103845239Y-50659524D01*
X104297620Y-50492857D02*
X104297620Y-50826190D01*
X104297620Y-50540476D02*
X104321429Y-50516667D01*
X104369048Y-50492857D01*
X104440477Y-50492857D01*
X104488096Y-50516667D01*
X104511905Y-50564286D01*
X104511905Y-50826190D01*
X104964286Y-50826190D02*
X104964286Y-50326190D01*
X104964286Y-50802381D02*
X104916667Y-50826190D01*
X104821429Y-50826190D01*
X104773810Y-50802381D01*
X104750001Y-50778571D01*
X104726191Y-50730952D01*
X104726191Y-50588095D01*
X104750001Y-50540476D01*
X104773810Y-50516667D01*
X104821429Y-50492857D01*
X104916667Y-50492857D01*
X104964286Y-50516667D01*
X105202382Y-50826190D02*
X105202382Y-50492857D01*
X105202382Y-50588095D02*
X105226191Y-50540476D01*
X105250001Y-50516667D01*
X105297620Y-50492857D01*
X105345239Y-50492857D01*
X105511906Y-50826190D02*
X105511906Y-50492857D01*
X105511906Y-50326190D02*
X105488096Y-50350000D01*
X105511906Y-50373810D01*
X105535715Y-50350000D01*
X105511906Y-50326190D01*
X105511906Y-50373810D01*
X105964286Y-50802381D02*
X105916667Y-50826190D01*
X105821429Y-50826190D01*
X105773810Y-50802381D01*
X105750001Y-50778571D01*
X105726191Y-50730952D01*
X105726191Y-50588095D01*
X105750001Y-50540476D01*
X105773810Y-50516667D01*
X105821429Y-50492857D01*
X105916667Y-50492857D01*
X105964286Y-50516667D01*
X106178572Y-50826190D02*
X106178572Y-50326190D01*
X106226191Y-50635714D02*
X106369048Y-50826190D01*
X106369048Y-50492857D02*
X106178572Y-50683333D01*
X106940476Y-50802381D02*
X107011905Y-50826190D01*
X107130952Y-50826190D01*
X107178571Y-50802381D01*
X107202381Y-50778571D01*
X107226190Y-50730952D01*
X107226190Y-50683333D01*
X107202381Y-50635714D01*
X107178571Y-50611905D01*
X107130952Y-50588095D01*
X107035714Y-50564286D01*
X106988095Y-50540476D01*
X106964286Y-50516667D01*
X106940476Y-50469048D01*
X106940476Y-50421429D01*
X106964286Y-50373810D01*
X106988095Y-50350000D01*
X107035714Y-50326190D01*
X107154762Y-50326190D01*
X107226190Y-50350000D01*
X107440476Y-50826190D02*
X107440476Y-50326190D01*
X107654761Y-50826190D02*
X107654761Y-50564286D01*
X107630952Y-50516667D01*
X107583333Y-50492857D01*
X107511904Y-50492857D01*
X107464285Y-50516667D01*
X107440476Y-50540476D01*
X108107142Y-50826190D02*
X108107142Y-50564286D01*
X108083333Y-50516667D01*
X108035714Y-50492857D01*
X107940476Y-50492857D01*
X107892857Y-50516667D01*
X108107142Y-50802381D02*
X108059523Y-50826190D01*
X107940476Y-50826190D01*
X107892857Y-50802381D01*
X107869047Y-50754762D01*
X107869047Y-50707143D01*
X107892857Y-50659524D01*
X107940476Y-50635714D01*
X108059523Y-50635714D01*
X108107142Y-50611905D01*
X108297619Y-50492857D02*
X108392857Y-50826190D01*
X108488095Y-50588095D01*
X108583333Y-50826190D01*
X108678571Y-50492857D01*
D12*
X99147929Y-54982856D02*
X99147929Y-54868570D01*
X99176500Y-54811428D01*
X99233643Y-54754285D01*
X99347929Y-54725713D01*
X99547929Y-54725713D01*
X99662214Y-54754285D01*
X99719357Y-54811428D01*
X99747929Y-54868570D01*
X99747929Y-54982856D01*
X99719357Y-55039999D01*
X99662214Y-55097142D01*
X99547929Y-55125713D01*
X99347929Y-55125713D01*
X99233643Y-55097142D01*
X99176500Y-55039999D01*
X99147929Y-54982856D01*
X99347929Y-54468571D02*
X99947929Y-54468571D01*
X99376500Y-54468571D02*
X99347929Y-54411428D01*
X99347929Y-54297142D01*
X99376500Y-54239999D01*
X99405071Y-54211428D01*
X99462214Y-54182857D01*
X99633643Y-54182857D01*
X99690786Y-54211428D01*
X99719357Y-54239999D01*
X99747929Y-54297142D01*
X99747929Y-54411428D01*
X99719357Y-54468571D01*
X99719357Y-53697142D02*
X99747929Y-53754285D01*
X99747929Y-53868571D01*
X99719357Y-53925714D01*
X99662214Y-53954285D01*
X99433643Y-53954285D01*
X99376500Y-53925714D01*
X99347929Y-53868571D01*
X99347929Y-53754285D01*
X99376500Y-53697142D01*
X99433643Y-53668571D01*
X99490786Y-53668571D01*
X99547929Y-53954285D01*
X99347929Y-53411428D02*
X99747929Y-53411428D01*
X99405071Y-53411428D02*
X99376500Y-53382856D01*
X99347929Y-53325714D01*
X99347929Y-53239999D01*
X99376500Y-53182856D01*
X99433643Y-53154285D01*
X99747929Y-53154285D01*
X99747929Y-52868571D02*
X99147929Y-52868571D01*
X99433643Y-52868571D02*
X99433643Y-52525714D01*
X99747929Y-52525714D02*
X99147929Y-52525714D01*
X99747929Y-51982857D02*
X99433643Y-51982857D01*
X99376500Y-52011428D01*
X99347929Y-52068571D01*
X99347929Y-52182857D01*
X99376500Y-52240000D01*
X99719357Y-51982857D02*
X99747929Y-52040000D01*
X99747929Y-52182857D01*
X99719357Y-52240000D01*
X99662214Y-52268571D01*
X99605071Y-52268571D01*
X99547929Y-52240000D01*
X99519357Y-52182857D01*
X99519357Y-52040000D01*
X99490786Y-51982857D01*
X99747929Y-51697143D02*
X99347929Y-51697143D01*
X99462214Y-51697143D02*
X99405071Y-51668571D01*
X99376500Y-51640000D01*
X99347929Y-51582857D01*
X99347929Y-51525714D01*
X99747929Y-51068571D02*
X99147929Y-51068571D01*
X99719357Y-51068571D02*
X99747929Y-51125714D01*
X99747929Y-51240000D01*
X99719357Y-51297142D01*
X99690786Y-51325714D01*
X99633643Y-51354285D01*
X99462214Y-51354285D01*
X99405071Y-51325714D01*
X99376500Y-51297142D01*
X99347929Y-51240000D01*
X99347929Y-51125714D01*
X99376500Y-51068571D01*
X99347929Y-50840000D02*
X99747929Y-50725714D01*
X99462214Y-50611428D01*
X99747929Y-50497143D01*
X99347929Y-50382857D01*
X99747929Y-49897143D02*
X99433643Y-49897143D01*
X99376500Y-49925714D01*
X99347929Y-49982857D01*
X99347929Y-50097143D01*
X99376500Y-50154286D01*
X99719357Y-49897143D02*
X99747929Y-49954286D01*
X99747929Y-50097143D01*
X99719357Y-50154286D01*
X99662214Y-50182857D01*
X99605071Y-50182857D01*
X99547929Y-50154286D01*
X99519357Y-50097143D01*
X99519357Y-49954286D01*
X99490786Y-49897143D01*
X99747929Y-49611429D02*
X99347929Y-49611429D01*
X99462214Y-49611429D02*
X99405071Y-49582857D01*
X99376500Y-49554286D01*
X99347929Y-49497143D01*
X99347929Y-49440000D01*
X99719357Y-49011428D02*
X99747929Y-49068571D01*
X99747929Y-49182857D01*
X99719357Y-49240000D01*
X99662214Y-49268571D01*
X99433643Y-49268571D01*
X99376500Y-49240000D01*
X99347929Y-49182857D01*
X99347929Y-49068571D01*
X99376500Y-49011428D01*
X99433643Y-48982857D01*
X99490786Y-48982857D01*
X99547929Y-49268571D01*
X99433643Y-48725714D02*
X99433643Y-48525714D01*
X99747929Y-48440000D02*
X99747929Y-48725714D01*
X99147929Y-48725714D01*
X99147929Y-48440000D01*
X99747929Y-48240000D02*
X99347929Y-47925714D01*
X99347929Y-48240000D02*
X99747929Y-47925714D01*
X99176500Y-47382857D02*
X99147929Y-47440000D01*
X99147929Y-47525714D01*
X99176500Y-47611429D01*
X99233643Y-47668571D01*
X99290786Y-47697143D01*
X99405071Y-47725714D01*
X99490786Y-47725714D01*
X99605071Y-47697143D01*
X99662214Y-47668571D01*
X99719357Y-47611429D01*
X99747929Y-47525714D01*
X99747929Y-47468571D01*
X99719357Y-47382857D01*
X99690786Y-47354286D01*
X99490786Y-47354286D01*
X99490786Y-47468571D01*
X100543500Y-55282858D02*
X100543500Y-54997144D01*
X100714929Y-55340001D02*
X100114929Y-55140001D01*
X100714929Y-54940001D01*
X100686357Y-54482858D02*
X100714929Y-54540001D01*
X100714929Y-54654287D01*
X100686357Y-54711429D01*
X100657786Y-54740001D01*
X100600643Y-54768572D01*
X100429214Y-54768572D01*
X100372071Y-54740001D01*
X100343500Y-54711429D01*
X100314929Y-54654287D01*
X100314929Y-54540001D01*
X100343500Y-54482858D01*
X100314929Y-54311429D02*
X100314929Y-54082858D01*
X100114929Y-54225715D02*
X100629214Y-54225715D01*
X100686357Y-54197143D01*
X100714929Y-54140001D01*
X100714929Y-54082858D01*
X100714929Y-53882858D02*
X100314929Y-53882858D01*
X100114929Y-53882858D02*
X100143500Y-53911429D01*
X100172071Y-53882858D01*
X100143500Y-53854286D01*
X100114929Y-53882858D01*
X100172071Y-53882858D01*
X100314929Y-53654287D02*
X100714929Y-53511430D01*
X100314929Y-53368572D01*
X100686357Y-52911429D02*
X100714929Y-52968572D01*
X100714929Y-53082858D01*
X100686357Y-53140001D01*
X100629214Y-53168572D01*
X100400643Y-53168572D01*
X100343500Y-53140001D01*
X100314929Y-53082858D01*
X100314929Y-52968572D01*
X100343500Y-52911429D01*
X100400643Y-52882858D01*
X100457786Y-52882858D01*
X100514929Y-53168572D01*
X100400643Y-52625715D02*
X100400643Y-52425715D01*
X100714929Y-52340001D02*
X100714929Y-52625715D01*
X100114929Y-52625715D01*
X100114929Y-52340001D01*
X100714929Y-51997144D02*
X100686357Y-52054286D01*
X100629214Y-52082858D01*
X100114929Y-52082858D01*
X100686357Y-51540000D02*
X100714929Y-51597143D01*
X100714929Y-51711429D01*
X100686357Y-51768572D01*
X100629214Y-51797143D01*
X100400643Y-51797143D01*
X100343500Y-51768572D01*
X100314929Y-51711429D01*
X100314929Y-51597143D01*
X100343500Y-51540000D01*
X100400643Y-51511429D01*
X100457786Y-51511429D01*
X100514929Y-51797143D01*
X100686357Y-50997143D02*
X100714929Y-51054286D01*
X100714929Y-51168572D01*
X100686357Y-51225714D01*
X100657786Y-51254286D01*
X100600643Y-51282857D01*
X100429214Y-51282857D01*
X100372071Y-51254286D01*
X100343500Y-51225714D01*
X100314929Y-51168572D01*
X100314929Y-51054286D01*
X100343500Y-50997143D01*
X100314929Y-50825714D02*
X100314929Y-50597143D01*
X100114929Y-50740000D02*
X100629214Y-50740000D01*
X100686357Y-50711428D01*
X100714929Y-50654286D01*
X100714929Y-50597143D01*
X100714929Y-50397143D02*
X100314929Y-50397143D01*
X100429214Y-50397143D02*
X100372071Y-50368571D01*
X100343500Y-50340000D01*
X100314929Y-50282857D01*
X100314929Y-50225714D01*
X100714929Y-49940000D02*
X100686357Y-49997142D01*
X100657786Y-50025714D01*
X100600643Y-50054285D01*
X100429214Y-50054285D01*
X100372071Y-50025714D01*
X100343500Y-49997142D01*
X100314929Y-49940000D01*
X100314929Y-49854285D01*
X100343500Y-49797142D01*
X100372071Y-49768571D01*
X100429214Y-49740000D01*
X100600643Y-49740000D01*
X100657786Y-49768571D01*
X100686357Y-49797142D01*
X100714929Y-49854285D01*
X100714929Y-49940000D01*
X100714929Y-49225714D02*
X100114929Y-49225714D01*
X100686357Y-49225714D02*
X100714929Y-49282857D01*
X100714929Y-49397143D01*
X100686357Y-49454285D01*
X100657786Y-49482857D01*
X100600643Y-49511428D01*
X100429214Y-49511428D01*
X100372071Y-49482857D01*
X100343500Y-49454285D01*
X100314929Y-49397143D01*
X100314929Y-49282857D01*
X100343500Y-49225714D01*
X100686357Y-48711428D02*
X100714929Y-48768571D01*
X100714929Y-48882857D01*
X100686357Y-48940000D01*
X100629214Y-48968571D01*
X100400643Y-48968571D01*
X100343500Y-48940000D01*
X100314929Y-48882857D01*
X100314929Y-48768571D01*
X100343500Y-48711428D01*
X100400643Y-48682857D01*
X100457786Y-48682857D01*
X100514929Y-48968571D01*
X100314929Y-48025714D02*
X100714929Y-47882857D01*
X100314929Y-47739999D01*
X100114929Y-47397142D02*
X100114929Y-47339999D01*
X100143500Y-47282856D01*
X100172071Y-47254285D01*
X100229214Y-47225714D01*
X100343500Y-47197142D01*
X100486357Y-47197142D01*
X100600643Y-47225714D01*
X100657786Y-47254285D01*
X100686357Y-47282856D01*
X100714929Y-47339999D01*
X100714929Y-47397142D01*
X100686357Y-47454285D01*
X100657786Y-47482856D01*
X100600643Y-47511428D01*
X100486357Y-47539999D01*
X100343500Y-47539999D01*
X100229214Y-47511428D01*
X100172071Y-47482856D01*
X100143500Y-47454285D01*
X100114929Y-47397142D01*
X102200001Y-45430786D02*
X102171430Y-45459357D01*
X102085716Y-45487929D01*
X102028573Y-45487929D01*
X101942858Y-45459357D01*
X101885716Y-45402214D01*
X101857144Y-45345071D01*
X101828573Y-45230786D01*
X101828573Y-45145071D01*
X101857144Y-45030786D01*
X101885716Y-44973643D01*
X101942858Y-44916500D01*
X102028573Y-44887929D01*
X102085716Y-44887929D01*
X102171430Y-44916500D01*
X102200001Y-44945071D01*
X102457144Y-45173643D02*
X102657144Y-45173643D01*
X102742858Y-45487929D02*
X102457144Y-45487929D01*
X102457144Y-44887929D01*
X102742858Y-44887929D01*
X103342858Y-45487929D02*
X103142858Y-45202214D01*
X103000001Y-45487929D02*
X103000001Y-44887929D01*
X103228573Y-44887929D01*
X103285715Y-44916500D01*
X103314287Y-44945071D01*
X103342858Y-45002214D01*
X103342858Y-45087929D01*
X103314287Y-45145071D01*
X103285715Y-45173643D01*
X103228573Y-45202214D01*
X103000001Y-45202214D01*
X103600001Y-45487929D02*
X103600001Y-44887929D01*
X103942858Y-45487929D01*
X103942858Y-44887929D01*
X104800001Y-44887929D02*
X104914287Y-44887929D01*
X104971429Y-44916500D01*
X105028572Y-44973643D01*
X105057144Y-45087929D01*
X105057144Y-45287929D01*
X105028572Y-45402214D01*
X104971429Y-45459357D01*
X104914287Y-45487929D01*
X104800001Y-45487929D01*
X104742858Y-45459357D01*
X104685715Y-45402214D01*
X104657144Y-45287929D01*
X104657144Y-45087929D01*
X104685715Y-44973643D01*
X104742858Y-44916500D01*
X104800001Y-44887929D01*
X105314286Y-45487929D02*
X105314286Y-44887929D01*
X105314286Y-45173643D02*
X105657143Y-45173643D01*
X105657143Y-45487929D02*
X105657143Y-44887929D01*
X106228571Y-45487929D02*
X105942857Y-45487929D01*
X105942857Y-44887929D01*
X103142857Y-46054929D02*
X103285714Y-46454929D01*
X103428572Y-46054929D01*
X103971429Y-46454929D02*
X103628572Y-46454929D01*
X103800000Y-46454929D02*
X103800000Y-45854929D01*
X103742857Y-45940643D01*
X103685715Y-45997786D01*
X103628572Y-46026357D01*
X104228572Y-46397786D02*
X104257144Y-46426357D01*
X104228572Y-46454929D01*
X104200001Y-46426357D01*
X104228572Y-46397786D01*
X104228572Y-46454929D01*
X104828572Y-46454929D02*
X104485715Y-46454929D01*
X104657143Y-46454929D02*
X104657143Y-45854929D01*
X104600000Y-45940643D01*
X104542858Y-45997786D01*
X104485715Y-46026357D01*
D13*
G36*
X102690680Y-44646200D02*
X102708460Y-44638580D01*
X102741480Y-44615720D01*
X102792280Y-44582700D01*
X102850700Y-44544600D01*
X102911660Y-44503960D01*
X102959920Y-44470940D01*
X102995480Y-44448080D01*
X103008180Y-44440460D01*
X103015800Y-44443000D01*
X103043740Y-44458240D01*
X103084380Y-44478560D01*
X103109780Y-44491260D01*
X103147880Y-44506500D01*
X103165660Y-44511580D01*
X103168200Y-44506500D01*
X103183440Y-44476020D01*
X103203760Y-44427760D01*
X103231700Y-44361720D01*
X103264720Y-44285520D01*
X103300280Y-44204240D01*
X103333300Y-44120420D01*
X103366320Y-44041680D01*
X103396800Y-43968020D01*
X103419660Y-43909600D01*
X103434900Y-43868960D01*
X103442520Y-43851180D01*
X103439980Y-43848640D01*
X103422200Y-43830860D01*
X103389180Y-43805460D01*
X103318060Y-43747040D01*
X103246940Y-43660680D01*
X103203760Y-43561620D01*
X103191060Y-43449860D01*
X103201220Y-43348260D01*
X103241860Y-43251740D01*
X103310440Y-43162840D01*
X103394260Y-43096800D01*
X103490780Y-43056160D01*
X103600000Y-43043460D01*
X103704140Y-43053620D01*
X103803200Y-43094260D01*
X103892100Y-43160300D01*
X103930200Y-43203480D01*
X103981000Y-43294920D01*
X104011480Y-43388900D01*
X104014020Y-43411760D01*
X104008940Y-43518440D01*
X103978460Y-43620040D01*
X103922580Y-43708940D01*
X103846380Y-43782600D01*
X103836220Y-43790220D01*
X103800660Y-43818160D01*
X103775260Y-43835940D01*
X103757480Y-43851180D01*
X103892100Y-44173760D01*
X103912420Y-44224560D01*
X103950520Y-44313460D01*
X103981000Y-44389660D01*
X104008940Y-44450620D01*
X104026720Y-44491260D01*
X104034340Y-44506500D01*
X104034340Y-44506500D01*
X104047040Y-44509040D01*
X104069900Y-44501420D01*
X104115620Y-44478560D01*
X104146100Y-44463320D01*
X104179120Y-44448080D01*
X104194360Y-44440460D01*
X104209600Y-44448080D01*
X104242620Y-44468400D01*
X104288340Y-44501420D01*
X104346760Y-44539520D01*
X104402640Y-44577620D01*
X104453440Y-44610640D01*
X104489000Y-44636040D01*
X104506780Y-44643660D01*
X104509320Y-44643660D01*
X104527100Y-44636040D01*
X104555040Y-44610640D01*
X104598220Y-44570000D01*
X104661720Y-44509040D01*
X104671880Y-44498880D01*
X104722680Y-44448080D01*
X104763320Y-44402360D01*
X104791260Y-44371880D01*
X104801420Y-44359180D01*
X104801420Y-44359180D01*
X104791260Y-44341400D01*
X104768400Y-44303300D01*
X104735380Y-44252500D01*
X104694740Y-44191540D01*
X104588060Y-44036600D01*
X104646480Y-43891820D01*
X104664260Y-43846100D01*
X104687120Y-43790220D01*
X104704900Y-43752120D01*
X104712520Y-43734340D01*
X104730300Y-43729260D01*
X104768400Y-43719100D01*
X104826820Y-43708940D01*
X104897940Y-43696240D01*
X104963980Y-43683540D01*
X105022400Y-43670840D01*
X105065580Y-43663220D01*
X105085900Y-43660680D01*
X105090980Y-43655600D01*
X105093520Y-43647980D01*
X105096060Y-43627660D01*
X105098600Y-43589560D01*
X105098600Y-43533680D01*
X105098600Y-43449860D01*
X105098600Y-43442240D01*
X105098600Y-43363500D01*
X105096060Y-43300000D01*
X105093520Y-43261900D01*
X105090980Y-43244120D01*
X105090980Y-43244120D01*
X105073200Y-43239040D01*
X105030020Y-43231420D01*
X104971600Y-43218720D01*
X104900480Y-43206020D01*
X104895400Y-43206020D01*
X104824280Y-43190780D01*
X104765860Y-43178080D01*
X104722680Y-43170460D01*
X104704900Y-43162840D01*
X104702360Y-43157760D01*
X104687120Y-43129820D01*
X104666800Y-43086640D01*
X104643940Y-43033300D01*
X104621080Y-42977420D01*
X104600760Y-42926620D01*
X104588060Y-42891060D01*
X104582980Y-42873280D01*
X104582980Y-42873280D01*
X104593140Y-42855500D01*
X104618540Y-42819940D01*
X104654100Y-42769140D01*
X104694740Y-42708180D01*
X104697280Y-42703100D01*
X104737920Y-42642140D01*
X104770940Y-42591340D01*
X104793800Y-42555780D01*
X104801420Y-42540540D01*
X104801420Y-42538000D01*
X104788720Y-42520220D01*
X104758240Y-42487200D01*
X104712520Y-42441480D01*
X104661720Y-42388140D01*
X104643940Y-42372900D01*
X104585520Y-42314480D01*
X104544880Y-42278920D01*
X104519480Y-42258600D01*
X104509320Y-42253520D01*
X104506780Y-42253520D01*
X104489000Y-42263680D01*
X104450900Y-42289080D01*
X104400100Y-42324640D01*
X104339140Y-42365280D01*
X104336600Y-42367820D01*
X104275640Y-42408460D01*
X104224840Y-42444020D01*
X104189280Y-42466880D01*
X104174040Y-42474500D01*
X104171500Y-42474500D01*
X104148640Y-42469420D01*
X104105460Y-42454180D01*
X104052120Y-42433860D01*
X103996240Y-42411000D01*
X103945440Y-42390680D01*
X103909880Y-42372900D01*
X103892100Y-42362740D01*
X103889560Y-42362740D01*
X103884480Y-42339880D01*
X103874320Y-42294160D01*
X103861620Y-42233200D01*
X103846380Y-42159540D01*
X103843840Y-42149380D01*
X103831140Y-42075720D01*
X103820980Y-42017300D01*
X103810820Y-41976660D01*
X103808280Y-41958880D01*
X103798120Y-41958880D01*
X103762560Y-41956340D01*
X103709220Y-41953800D01*
X103643180Y-41953800D01*
X103577140Y-41953800D01*
X103511100Y-41953800D01*
X103455220Y-41956340D01*
X103414580Y-41958880D01*
X103396800Y-41963960D01*
X103396800Y-41963960D01*
X103391720Y-41986820D01*
X103381560Y-42030000D01*
X103368860Y-42093500D01*
X103353620Y-42167160D01*
X103351080Y-42179860D01*
X103338380Y-42250980D01*
X103325680Y-42309400D01*
X103318060Y-42350040D01*
X103312980Y-42365280D01*
X103307900Y-42367820D01*
X103277420Y-42383060D01*
X103229160Y-42400840D01*
X103170740Y-42426240D01*
X103033580Y-42482120D01*
X102865940Y-42365280D01*
X102850700Y-42355120D01*
X102789740Y-42314480D01*
X102738940Y-42281460D01*
X102703380Y-42258600D01*
X102690680Y-42250980D01*
X102688140Y-42250980D01*
X102672900Y-42266220D01*
X102639880Y-42296700D01*
X102594160Y-42342420D01*
X102540820Y-42393220D01*
X102500180Y-42433860D01*
X102454460Y-42479580D01*
X102426520Y-42512600D01*
X102408740Y-42532920D01*
X102403660Y-42545620D01*
X102406200Y-42553240D01*
X102416360Y-42571020D01*
X102441760Y-42606580D01*
X102474780Y-42659920D01*
X102515420Y-42718340D01*
X102550980Y-42769140D01*
X102586540Y-42825020D01*
X102609400Y-42865660D01*
X102619560Y-42883440D01*
X102617020Y-42893600D01*
X102604320Y-42926620D01*
X102584000Y-42974880D01*
X102558600Y-43035840D01*
X102500180Y-43167920D01*
X102413820Y-43185700D01*
X102360480Y-43195860D01*
X102286820Y-43208560D01*
X102215700Y-43223800D01*
X102103940Y-43244120D01*
X102101400Y-43647980D01*
X102119180Y-43655600D01*
X102134420Y-43660680D01*
X102175060Y-43670840D01*
X102233480Y-43681000D01*
X102302060Y-43693700D01*
X102363020Y-43706400D01*
X102421440Y-43716560D01*
X102464620Y-43724180D01*
X102482400Y-43729260D01*
X102487480Y-43734340D01*
X102502720Y-43764820D01*
X102523040Y-43810540D01*
X102545900Y-43863880D01*
X102571300Y-43922300D01*
X102591620Y-43973100D01*
X102606860Y-44013740D01*
X102611940Y-44034060D01*
X102604320Y-44049300D01*
X102581460Y-44084860D01*
X102548440Y-44135660D01*
X102507800Y-44194080D01*
X102467160Y-44252500D01*
X102434140Y-44303300D01*
X102408740Y-44338860D01*
X102401120Y-44356640D01*
X102406200Y-44366800D01*
X102429060Y-44394740D01*
X102472240Y-44440460D01*
X102538280Y-44506500D01*
X102550980Y-44516660D01*
X102601780Y-44567460D01*
X102647500Y-44608100D01*
X102677980Y-44636040D01*
X102690680Y-44646200D01*
X102690680Y-44646200D01*
G37*
X102690680Y-44646200D02*
X102708460Y-44638580D01*
X102741480Y-44615720D01*
X102792280Y-44582700D01*
X102850700Y-44544600D01*
X102911660Y-44503960D01*
X102959920Y-44470940D01*
X102995480Y-44448080D01*
X103008180Y-44440460D01*
X103015800Y-44443000D01*
X103043740Y-44458240D01*
X103084380Y-44478560D01*
X103109780Y-44491260D01*
X103147880Y-44506500D01*
X103165660Y-44511580D01*
X103168200Y-44506500D01*
X103183440Y-44476020D01*
X103203760Y-44427760D01*
X103231700Y-44361720D01*
X103264720Y-44285520D01*
X103300280Y-44204240D01*
X103333300Y-44120420D01*
X103366320Y-44041680D01*
X103396800Y-43968020D01*
X103419660Y-43909600D01*
X103434900Y-43868960D01*
X103442520Y-43851180D01*
X103439980Y-43848640D01*
X103422200Y-43830860D01*
X103389180Y-43805460D01*
X103318060Y-43747040D01*
X103246940Y-43660680D01*
X103203760Y-43561620D01*
X103191060Y-43449860D01*
X103201220Y-43348260D01*
X103241860Y-43251740D01*
X103310440Y-43162840D01*
X103394260Y-43096800D01*
X103490780Y-43056160D01*
X103600000Y-43043460D01*
X103704140Y-43053620D01*
X103803200Y-43094260D01*
X103892100Y-43160300D01*
X103930200Y-43203480D01*
X103981000Y-43294920D01*
X104011480Y-43388900D01*
X104014020Y-43411760D01*
X104008940Y-43518440D01*
X103978460Y-43620040D01*
X103922580Y-43708940D01*
X103846380Y-43782600D01*
X103836220Y-43790220D01*
X103800660Y-43818160D01*
X103775260Y-43835940D01*
X103757480Y-43851180D01*
X103892100Y-44173760D01*
X103912420Y-44224560D01*
X103950520Y-44313460D01*
X103981000Y-44389660D01*
X104008940Y-44450620D01*
X104026720Y-44491260D01*
X104034340Y-44506500D01*
X104034340Y-44506500D01*
X104047040Y-44509040D01*
X104069900Y-44501420D01*
X104115620Y-44478560D01*
X104146100Y-44463320D01*
X104179120Y-44448080D01*
X104194360Y-44440460D01*
X104209600Y-44448080D01*
X104242620Y-44468400D01*
X104288340Y-44501420D01*
X104346760Y-44539520D01*
X104402640Y-44577620D01*
X104453440Y-44610640D01*
X104489000Y-44636040D01*
X104506780Y-44643660D01*
X104509320Y-44643660D01*
X104527100Y-44636040D01*
X104555040Y-44610640D01*
X104598220Y-44570000D01*
X104661720Y-44509040D01*
X104671880Y-44498880D01*
X104722680Y-44448080D01*
X104763320Y-44402360D01*
X104791260Y-44371880D01*
X104801420Y-44359180D01*
X104801420Y-44359180D01*
X104791260Y-44341400D01*
X104768400Y-44303300D01*
X104735380Y-44252500D01*
X104694740Y-44191540D01*
X104588060Y-44036600D01*
X104646480Y-43891820D01*
X104664260Y-43846100D01*
X104687120Y-43790220D01*
X104704900Y-43752120D01*
X104712520Y-43734340D01*
X104730300Y-43729260D01*
X104768400Y-43719100D01*
X104826820Y-43708940D01*
X104897940Y-43696240D01*
X104963980Y-43683540D01*
X105022400Y-43670840D01*
X105065580Y-43663220D01*
X105085900Y-43660680D01*
X105090980Y-43655600D01*
X105093520Y-43647980D01*
X105096060Y-43627660D01*
X105098600Y-43589560D01*
X105098600Y-43533680D01*
X105098600Y-43449860D01*
X105098600Y-43442240D01*
X105098600Y-43363500D01*
X105096060Y-43300000D01*
X105093520Y-43261900D01*
X105090980Y-43244120D01*
X105090980Y-43244120D01*
X105073200Y-43239040D01*
X105030020Y-43231420D01*
X104971600Y-43218720D01*
X104900480Y-43206020D01*
X104895400Y-43206020D01*
X104824280Y-43190780D01*
X104765860Y-43178080D01*
X104722680Y-43170460D01*
X104704900Y-43162840D01*
X104702360Y-43157760D01*
X104687120Y-43129820D01*
X104666800Y-43086640D01*
X104643940Y-43033300D01*
X104621080Y-42977420D01*
X104600760Y-42926620D01*
X104588060Y-42891060D01*
X104582980Y-42873280D01*
X104582980Y-42873280D01*
X104593140Y-42855500D01*
X104618540Y-42819940D01*
X104654100Y-42769140D01*
X104694740Y-42708180D01*
X104697280Y-42703100D01*
X104737920Y-42642140D01*
X104770940Y-42591340D01*
X104793800Y-42555780D01*
X104801420Y-42540540D01*
X104801420Y-42538000D01*
X104788720Y-42520220D01*
X104758240Y-42487200D01*
X104712520Y-42441480D01*
X104661720Y-42388140D01*
X104643940Y-42372900D01*
X104585520Y-42314480D01*
X104544880Y-42278920D01*
X104519480Y-42258600D01*
X104509320Y-42253520D01*
X104506780Y-42253520D01*
X104489000Y-42263680D01*
X104450900Y-42289080D01*
X104400100Y-42324640D01*
X104339140Y-42365280D01*
X104336600Y-42367820D01*
X104275640Y-42408460D01*
X104224840Y-42444020D01*
X104189280Y-42466880D01*
X104174040Y-42474500D01*
X104171500Y-42474500D01*
X104148640Y-42469420D01*
X104105460Y-42454180D01*
X104052120Y-42433860D01*
X103996240Y-42411000D01*
X103945440Y-42390680D01*
X103909880Y-42372900D01*
X103892100Y-42362740D01*
X103889560Y-42362740D01*
X103884480Y-42339880D01*
X103874320Y-42294160D01*
X103861620Y-42233200D01*
X103846380Y-42159540D01*
X103843840Y-42149380D01*
X103831140Y-42075720D01*
X103820980Y-42017300D01*
X103810820Y-41976660D01*
X103808280Y-41958880D01*
X103798120Y-41958880D01*
X103762560Y-41956340D01*
X103709220Y-41953800D01*
X103643180Y-41953800D01*
X103577140Y-41953800D01*
X103511100Y-41953800D01*
X103455220Y-41956340D01*
X103414580Y-41958880D01*
X103396800Y-41963960D01*
X103396800Y-41963960D01*
X103391720Y-41986820D01*
X103381560Y-42030000D01*
X103368860Y-42093500D01*
X103353620Y-42167160D01*
X103351080Y-42179860D01*
X103338380Y-42250980D01*
X103325680Y-42309400D01*
X103318060Y-42350040D01*
X103312980Y-42365280D01*
X103307900Y-42367820D01*
X103277420Y-42383060D01*
X103229160Y-42400840D01*
X103170740Y-42426240D01*
X103033580Y-42482120D01*
X102865940Y-42365280D01*
X102850700Y-42355120D01*
X102789740Y-42314480D01*
X102738940Y-42281460D01*
X102703380Y-42258600D01*
X102690680Y-42250980D01*
X102688140Y-42250980D01*
X102672900Y-42266220D01*
X102639880Y-42296700D01*
X102594160Y-42342420D01*
X102540820Y-42393220D01*
X102500180Y-42433860D01*
X102454460Y-42479580D01*
X102426520Y-42512600D01*
X102408740Y-42532920D01*
X102403660Y-42545620D01*
X102406200Y-42553240D01*
X102416360Y-42571020D01*
X102441760Y-42606580D01*
X102474780Y-42659920D01*
X102515420Y-42718340D01*
X102550980Y-42769140D01*
X102586540Y-42825020D01*
X102609400Y-42865660D01*
X102619560Y-42883440D01*
X102617020Y-42893600D01*
X102604320Y-42926620D01*
X102584000Y-42974880D01*
X102558600Y-43035840D01*
X102500180Y-43167920D01*
X102413820Y-43185700D01*
X102360480Y-43195860D01*
X102286820Y-43208560D01*
X102215700Y-43223800D01*
X102103940Y-43244120D01*
X102101400Y-43647980D01*
X102119180Y-43655600D01*
X102134420Y-43660680D01*
X102175060Y-43670840D01*
X102233480Y-43681000D01*
X102302060Y-43693700D01*
X102363020Y-43706400D01*
X102421440Y-43716560D01*
X102464620Y-43724180D01*
X102482400Y-43729260D01*
X102487480Y-43734340D01*
X102502720Y-43764820D01*
X102523040Y-43810540D01*
X102545900Y-43863880D01*
X102571300Y-43922300D01*
X102591620Y-43973100D01*
X102606860Y-44013740D01*
X102611940Y-44034060D01*
X102604320Y-44049300D01*
X102581460Y-44084860D01*
X102548440Y-44135660D01*
X102507800Y-44194080D01*
X102467160Y-44252500D01*
X102434140Y-44303300D01*
X102408740Y-44338860D01*
X102401120Y-44356640D01*
X102406200Y-44366800D01*
X102429060Y-44394740D01*
X102472240Y-44440460D01*
X102538280Y-44506500D01*
X102550980Y-44516660D01*
X102601780Y-44567460D01*
X102647500Y-44608100D01*
X102677980Y-44636040D01*
X102690680Y-44646200D01*
D10*
X97915000Y-58185000D02*
X97665000Y-58185000D01*
X97665000Y-57385000D02*
X97915000Y-57385000D01*
X100805000Y-56765000D02*
X100805000Y-56265000D01*
X99855000Y-56265000D02*
X99855000Y-56765000D01*
X100580000Y-43975000D02*
X100080000Y-43975000D01*
X100080000Y-44925000D02*
X100580000Y-44925000D01*
X99980000Y-45755000D02*
X100680000Y-45755000D01*
X100680000Y-46955000D02*
X99980000Y-46955000D01*
X102235000Y-53665000D02*
X102235000Y-46665000D01*
X102235000Y-46665000D02*
X109835000Y-46665000D01*
X109835000Y-46665000D02*
X109835000Y-53665000D01*
X109835000Y-53665000D02*
X102235000Y-53665000D01*
X100220000Y-59305000D02*
X100220000Y-58805000D01*
X99170000Y-58805000D02*
X99170000Y-59305000D01*
X98675000Y-55355000D02*
X98175000Y-55355000D01*
X98175000Y-56405000D02*
X98675000Y-56405000D01*
X96410000Y-56765000D02*
X96410000Y-56265000D01*
X95360000Y-56265000D02*
X95360000Y-56765000D01*
X101985000Y-55135000D02*
X102485000Y-55135000D01*
X102485000Y-54085000D02*
X101985000Y-54085000D01*
X97405000Y-43925000D02*
X96905000Y-43925000D01*
X96905000Y-44975000D02*
X97405000Y-44975000D01*
X101270000Y-58085000D02*
G75*
G03X101270000Y-58085000I-100000J0D01*
G01*
X101420000Y-57535000D02*
X101420000Y-58035000D01*
X104320000Y-57535000D02*
X101420000Y-57535000D01*
X104320000Y-58035000D02*
X104320000Y-57535000D01*
X101420000Y-58035000D02*
X104320000Y-58035000D01*
X93310000Y-52875000D02*
X93455000Y-52875000D01*
X93310000Y-48725000D02*
X93455000Y-48725000D01*
X98460000Y-48725000D02*
X98315000Y-48725000D01*
X98460000Y-52875000D02*
X98315000Y-52875000D01*
X93310000Y-52875000D02*
X93310000Y-48725000D01*
X98460000Y-52875000D02*
X98460000Y-48725000D01*
X93455000Y-52875000D02*
X93455000Y-54275000D01*
D12*
X98985400Y-57770686D02*
X98956829Y-57799257D01*
X98871115Y-57827829D01*
X98813972Y-57827829D01*
X98728257Y-57799257D01*
X98671115Y-57742114D01*
X98642543Y-57684971D01*
X98613972Y-57570686D01*
X98613972Y-57484971D01*
X98642543Y-57370686D01*
X98671115Y-57313543D01*
X98728257Y-57256400D01*
X98813972Y-57227829D01*
X98871115Y-57227829D01*
X98956829Y-57256400D01*
X98985400Y-57284971D01*
X99556829Y-57827829D02*
X99213972Y-57827829D01*
X99385400Y-57827829D02*
X99385400Y-57227829D01*
X99328257Y-57313543D01*
X99271115Y-57370686D01*
X99213972Y-57399257D01*
X101400000Y-55814286D02*
X101371429Y-55842857D01*
X101285715Y-55871429D01*
X101228572Y-55871429D01*
X101142857Y-55842857D01*
X101085715Y-55785714D01*
X101057143Y-55728571D01*
X101028572Y-55614286D01*
X101028572Y-55528571D01*
X101057143Y-55414286D01*
X101085715Y-55357143D01*
X101142857Y-55300000D01*
X101228572Y-55271429D01*
X101285715Y-55271429D01*
X101371429Y-55300000D01*
X101400000Y-55328571D01*
X101628572Y-55328571D02*
X101657143Y-55300000D01*
X101714286Y-55271429D01*
X101857143Y-55271429D01*
X101914286Y-55300000D01*
X101942857Y-55328571D01*
X101971429Y-55385714D01*
X101971429Y-55442857D01*
X101942857Y-55528571D01*
X101600000Y-55871429D01*
X101971429Y-55871429D01*
X100865000Y-43546686D02*
X100836429Y-43575257D01*
X100750715Y-43603829D01*
X100693572Y-43603829D01*
X100607857Y-43575257D01*
X100550715Y-43518114D01*
X100522143Y-43460971D01*
X100493572Y-43346686D01*
X100493572Y-43260971D01*
X100522143Y-43146686D01*
X100550715Y-43089543D01*
X100607857Y-43032400D01*
X100693572Y-43003829D01*
X100750715Y-43003829D01*
X100836429Y-43032400D01*
X100865000Y-43060971D01*
X101065000Y-43003829D02*
X101436429Y-43003829D01*
X101236429Y-43232400D01*
X101322143Y-43232400D01*
X101379286Y-43260971D01*
X101407857Y-43289543D01*
X101436429Y-43346686D01*
X101436429Y-43489543D01*
X101407857Y-43546686D01*
X101379286Y-43575257D01*
X101322143Y-43603829D01*
X101150715Y-43603829D01*
X101093572Y-43575257D01*
X101065000Y-43546686D01*
X98147200Y-46112086D02*
X98118629Y-46140657D01*
X98032915Y-46169229D01*
X97975772Y-46169229D01*
X97890057Y-46140657D01*
X97832915Y-46083514D01*
X97804343Y-46026371D01*
X97775772Y-45912086D01*
X97775772Y-45826371D01*
X97804343Y-45712086D01*
X97832915Y-45654943D01*
X97890057Y-45597800D01*
X97975772Y-45569229D01*
X98032915Y-45569229D01*
X98118629Y-45597800D01*
X98147200Y-45626371D01*
X98661486Y-45769229D02*
X98661486Y-46169229D01*
X98518629Y-45540657D02*
X98375772Y-45969229D01*
X98747200Y-45969229D01*
X101973029Y-52919257D02*
X101373029Y-52919257D01*
X101973029Y-52576400D02*
X101630171Y-52833543D01*
X101373029Y-52576400D02*
X101715886Y-52919257D01*
X101973029Y-52004971D02*
X101973029Y-52347828D01*
X101973029Y-52176400D02*
X101373029Y-52176400D01*
X101458743Y-52233543D01*
X101515886Y-52290685D01*
X101544457Y-52347828D01*
X98899629Y-59485200D02*
X98613914Y-59685200D01*
X98899629Y-59828057D02*
X98299629Y-59828057D01*
X98299629Y-59599485D01*
X98328200Y-59542343D01*
X98356771Y-59513771D01*
X98413914Y-59485200D01*
X98499629Y-59485200D01*
X98556771Y-59513771D01*
X98585343Y-59542343D01*
X98613914Y-59599485D01*
X98613914Y-59828057D01*
X98899629Y-58913771D02*
X98899629Y-59256628D01*
X98899629Y-59085200D02*
X98299629Y-59085200D01*
X98385343Y-59142343D01*
X98442486Y-59199485D01*
X98471057Y-59256628D01*
X97100000Y-55171429D02*
X96900000Y-54885714D01*
X96757143Y-55171429D02*
X96757143Y-54571429D01*
X96985715Y-54571429D01*
X97042857Y-54600000D01*
X97071429Y-54628571D01*
X97100000Y-54685714D01*
X97100000Y-54771429D01*
X97071429Y-54828571D01*
X97042857Y-54857143D01*
X96985715Y-54885714D01*
X96757143Y-54885714D01*
X97328572Y-54628571D02*
X97357143Y-54600000D01*
X97414286Y-54571429D01*
X97557143Y-54571429D01*
X97614286Y-54600000D01*
X97642857Y-54628571D01*
X97671429Y-54685714D01*
X97671429Y-54742857D01*
X97642857Y-54828571D01*
X97300000Y-55171429D01*
X97671429Y-55171429D01*
X95089629Y-56361000D02*
X94803914Y-56561000D01*
X95089629Y-56703857D02*
X94489629Y-56703857D01*
X94489629Y-56475285D01*
X94518200Y-56418143D01*
X94546771Y-56389571D01*
X94603914Y-56361000D01*
X94689629Y-56361000D01*
X94746771Y-56389571D01*
X94775343Y-56418143D01*
X94803914Y-56475285D01*
X94803914Y-56703857D01*
X94489629Y-56161000D02*
X94489629Y-55789571D01*
X94718200Y-55989571D01*
X94718200Y-55903857D01*
X94746771Y-55846714D01*
X94775343Y-55818143D01*
X94832486Y-55789571D01*
X94975343Y-55789571D01*
X95032486Y-55818143D01*
X95061057Y-55846714D01*
X95089629Y-55903857D01*
X95089629Y-56075285D01*
X95061057Y-56132428D01*
X95032486Y-56161000D01*
X103760600Y-54652829D02*
X103560600Y-54367114D01*
X103417743Y-54652829D02*
X103417743Y-54052829D01*
X103646315Y-54052829D01*
X103703457Y-54081400D01*
X103732029Y-54109971D01*
X103760600Y-54167114D01*
X103760600Y-54252829D01*
X103732029Y-54309971D01*
X103703457Y-54338543D01*
X103646315Y-54367114D01*
X103417743Y-54367114D01*
X104274886Y-54252829D02*
X104274886Y-54652829D01*
X104132029Y-54024257D02*
X103989172Y-54452829D01*
X104360600Y-54452829D01*
X97436000Y-43603829D02*
X97236000Y-43318114D01*
X97093143Y-43603829D02*
X97093143Y-43003829D01*
X97321715Y-43003829D01*
X97378857Y-43032400D01*
X97407429Y-43060971D01*
X97436000Y-43118114D01*
X97436000Y-43203829D01*
X97407429Y-43260971D01*
X97378857Y-43289543D01*
X97321715Y-43318114D01*
X97093143Y-43318114D01*
X97978857Y-43003829D02*
X97693143Y-43003829D01*
X97664572Y-43289543D01*
X97693143Y-43260971D01*
X97750286Y-43232400D01*
X97893143Y-43232400D01*
X97950286Y-43260971D01*
X97978857Y-43289543D01*
X98007429Y-43346686D01*
X98007429Y-43489543D01*
X97978857Y-43546686D01*
X97950286Y-43575257D01*
X97893143Y-43603829D01*
X97750286Y-43603829D01*
X97693143Y-43575257D01*
X97664572Y-43546686D01*
X104725829Y-58165943D02*
X105211543Y-58165943D01*
X105268686Y-58137371D01*
X105297257Y-58108800D01*
X105325829Y-58051657D01*
X105325829Y-57937371D01*
X105297257Y-57880229D01*
X105268686Y-57851657D01*
X105211543Y-57823086D01*
X104725829Y-57823086D01*
X105325829Y-57223086D02*
X105325829Y-57565943D01*
X105325829Y-57394515D02*
X104725829Y-57394515D01*
X104811543Y-57451658D01*
X104868686Y-57508800D01*
X104897257Y-57565943D01*
X92279829Y-51307943D02*
X92765543Y-51307943D01*
X92822686Y-51279371D01*
X92851257Y-51250800D01*
X92879829Y-51193657D01*
X92879829Y-51079371D01*
X92851257Y-51022229D01*
X92822686Y-50993657D01*
X92765543Y-50965086D01*
X92279829Y-50965086D01*
X92336971Y-50707943D02*
X92308400Y-50679372D01*
X92279829Y-50622229D01*
X92279829Y-50479372D01*
X92308400Y-50422229D01*
X92336971Y-50393658D01*
X92394114Y-50365086D01*
X92451257Y-50365086D01*
X92536971Y-50393658D01*
X92879829Y-50736515D01*
X92879829Y-50365086D01*
M02*
