G04 #@! TF.FileFunction,Copper,L2,Inr,Signal*
%FSLAX46Y46*%
G04 Gerber Fmt 4.6, Leading zero omitted, Abs format (unit mm)*
G04 Created by KiCad (PCBNEW 4.0.1-3.201512221402+6198~38~ubuntu14.04.1-stable) date Sun Jan  3 21:03:05 2016*
%MOMM*%
G01*
G04 APERTURE LIST*
%ADD10C,0.150000*%
%ADD11C,0.889000*%
%ADD12C,0.254000*%
G04 APERTURE END LIST*
D10*
D11*
X95554800Y-55219600D03*
X107264200Y-44399200D03*
X108991400Y-56032400D03*
X94691200Y-45567600D03*
X95885000Y-58140600D03*
D12*
G36*
X105077924Y-42661907D02*
X108069432Y-44660768D01*
X110068293Y-47652276D01*
X110702044Y-50838358D01*
X110645248Y-51136212D01*
X110645035Y-51182645D01*
X110704547Y-51511059D01*
X110068293Y-54709724D01*
X108069432Y-57701232D01*
X105077924Y-59700093D01*
X101549200Y-60402000D01*
X98020476Y-59700093D01*
X95028968Y-57701232D01*
X93480031Y-55383082D01*
X94729157Y-55383082D01*
X94854567Y-55686598D01*
X95086581Y-55919017D01*
X95389877Y-56044957D01*
X95718282Y-56045243D01*
X96021798Y-55919833D01*
X96254217Y-55687819D01*
X96380157Y-55384523D01*
X96380443Y-55056118D01*
X96255033Y-54752602D01*
X96023019Y-54520183D01*
X95719723Y-54394243D01*
X95391318Y-54393957D01*
X95087802Y-54519367D01*
X94855383Y-54751381D01*
X94729443Y-55054677D01*
X94729157Y-55383082D01*
X93480031Y-55383082D01*
X93030107Y-54709724D01*
X92328200Y-51181000D01*
X93030107Y-47652276D01*
X95028968Y-44660768D01*
X98020476Y-42661907D01*
X101549200Y-41960000D01*
X105077924Y-42661907D01*
X105077924Y-42661907D01*
G37*
X105077924Y-42661907D02*
X108069432Y-44660768D01*
X110068293Y-47652276D01*
X110702044Y-50838358D01*
X110645248Y-51136212D01*
X110645035Y-51182645D01*
X110704547Y-51511059D01*
X110068293Y-54709724D01*
X108069432Y-57701232D01*
X105077924Y-59700093D01*
X101549200Y-60402000D01*
X98020476Y-59700093D01*
X95028968Y-57701232D01*
X93480031Y-55383082D01*
X94729157Y-55383082D01*
X94854567Y-55686598D01*
X95086581Y-55919017D01*
X95389877Y-56044957D01*
X95718282Y-56045243D01*
X96021798Y-55919833D01*
X96254217Y-55687819D01*
X96380157Y-55384523D01*
X96380443Y-55056118D01*
X96255033Y-54752602D01*
X96023019Y-54520183D01*
X95719723Y-54394243D01*
X95391318Y-54393957D01*
X95087802Y-54519367D01*
X94855383Y-54751381D01*
X94729443Y-55054677D01*
X94729157Y-55383082D01*
X93480031Y-55383082D01*
X93030107Y-54709724D01*
X92328200Y-51181000D01*
X93030107Y-47652276D01*
X95028968Y-44660768D01*
X98020476Y-42661907D01*
X101549200Y-41960000D01*
X105077924Y-42661907D01*
M02*
